<svg xmlns="http://www.w3.org/2000/svg" viewBox="0 0 861 250" enable-background="new 0 0 861 250"><style>.style0{fill:#25303C;}.style1{fill:#9CB53B;}</style><path d="M299.8 91.3h-14.4l-.3.8-24.6 67.8h9.1c2.4 0 4.3-.3 5.7-1.3 1.5-1.1 2.3-2.7 3.1-4.8l3.8-10.8h20.7l3.8 10.8c.8 2.2 1.7 3.8 3.2 4.9 1.5 1 3.4 1.3 5.8 1.3h9l-24.9-68.7zm-7.3 18.6c.5 1.8 1 3.9 1.6 5.5l5.1 15h-13.4l5.1-15c.6-1.6 1.2-3.7 1.6-5.5zM192.4 145.6l-1.1.5 1.1-.5-8.4-16.9c-1.1-2.2-2.4-3.5-3.3-4.3.9-.8 2.1-2.2 3.2-4.2l15.9-29h-16.2l-13.7 25.4c-.4.7-.8 1-1.5 1.2-.6.2-1.6.3-2.8.3h-5.9v-19.3c0-2.3-.5-4.3-1.8-5.6-1.4-1.4-3.3-1.9-5.7-1.9h-7.2v68.5h14.8v-28.9h5.1c1.3 0 2.4 0 3.1.3.7.2 1.2.5 1.6 1.3l10.8 21.7c1.1 2.3 2.4 3.8 4.1 4.6 1.7.8 3.7 1 6.2 1h9l-.9-1.8s-5.5-10.5-6.4-12.4zM255.1 91.3h-5.9c-2.3 0-4.3.5-5.7 1.9-1.3 1.4-1.9 3.3-1.9 5.7v20.5h-22v-20.6c0-2.3-.5-4.3-1.8-5.6-1.4-1.4-3.3-1.9-5.7-1.9h-7.1v68.5h14.6v-27.8h22v27.8h14.6v-68.5h-1.1zM380.8 91.3h-5.8c-2.4 0-4.4.5-5.7 1.9-1.3 1.4-1.8 3.3-1.8 5.6v30.3c0 1 0 2.1.1 3.2-.9-1.8-1.9-3.6-3-5.1l-21.8-35.9h-14.1v68.5h7.1c2.4 0 4.3-.5 5.7-1.8 1.4-1.4 1.8-3.3 1.8-5.7v-30.2c0-1 0-2.1-.1-3.2.9 1.8 1.9 3.6 3 5.1l21.9 35.8h14v-68.5h-1.3zM412.7 91.7h7.3l25.8 68.1h-2c-4.8 0-6.2-1-7.9-5.6l-6-16.1h-27l-6.1 16.1c-1.7 4.6-3 5.6-7.8 5.6h-2l25.7-68.1zm15.3 40.4l-9-24.3c-1.2-3.2-2.6-8.8-2.6-8.8h-.2s-1.5 5.6-2.6 8.8l-8.9 24.3h23.3zM529 91.7h7.3l25.8 68.1h-2c-4.8 0-6.2-1-7.9-5.6l-6-16.1h-27l-6.1 16.1c-1.7 4.6-3 5.6-7.8 5.6h-2l25.7-68.1zm15.2 40.4l-9-24.3c-1.2-3.2-2.6-8.8-2.6-8.8h-.2s-1.5 5.6-2.6 8.8l-8.9 24.3h23.3zM678.3 91.7h6.9l18 39.6c1.6 3.5 3.4 8 3.4 8h.2s1.7-4.5 3.3-8l18-39.6h6.9l5.9 68.1h-2c-4.2 0-5.6-1.7-5.9-5.9l-3.2-41.3c-.3-3.7-.3-9.5-.3-9.5h-.2s-1.8 6-3.5 9.5l-16.1 34.4h-6.1l-16.1-34.6c-1.6-3.4-3.6-9.7-3.6-9.7h-.2s0 6-.3 9.7l-3.2 41.3c-.3 4.2-1.7 5.9-5.9 5.9h-1.6l5.6-67.9zM764.4 130.1l-23.7-38.4h2c4.6 0 6.4.7 9.3 5.4l11.5 19.3c2.1 3.6 4.2 7.7 4.2 7.7h.2s2-4.1 4.2-7.7l11.5-19.3c2.9-4.7 4.6-5.4 9.3-5.4h2l-23.7 38.4v29.6h-6.8v-29.6zM496.5 108.2c-2.6-5.6-10-12-20.9-12-15.1 0-26.7 11.8-26.7 28.3 0 16.3 11.5 29.3 27 29.3 7.4 0 13.3-2.5 17-5.2 4.5-3.3 9.2.5 9.2.5s-9.4 11-26.2 11c-19.9 0-34-15.9-34-35.7 0-19.6 14.4-34.7 33.6-34.7 9.7 0 21.6 4.3 26.1 14.6 2.1 4.7 2.4 6.9 2.4 6.9s-5.7.7-7.5-3zM587.4 91.7h-21v62.2c0 4.2 1.7 5.9 5.9 5.9h15.1c20.5 0 34.2-12.4 34.2-34.1-.1-21.6-13.7-34-34.2-34zm-.7 62h-11.4c-1.4 0-2.1-.7-2.1-2.1v-53.9h13.6c16.6 0 27.8 9.9 27.8 28-.1 18.1-11.2 28-27.9 28zM660 153.7h-23.9c-1.4 0-2.1-.7-2.1-2.1v-23.1h25.6v-6h-25.6v-24.8h31.700000000000003v-.1c0-4.2-1.7-5.9-5.9-5.9h-32.6v62.099999999999994c0 4.2 1.7 5.9 5.9 5.9h29.4c4.2 0 5.9-1.7 5.9-5.9v-.1h-8.4z" class="style0"/><path d="M69.2 155.5s-10.8-25.9 8.6-45.3c17.7-17.6 44.3-20.3 48.9-20.4 0 0 7.2 23.5-10.7 50.1-17.8 26.6-42.6 19.4-42.6 19.4s24.4-31.2 21.5-31c-2.1.1-14.9 14.3-25.7 27.2z" class="style1"/></svg>