<svg xmlns="http://www.w3.org/2000/svg" width="438.533" height="438.533" viewBox="0 0 438.533 438.533"><path d="M420.265 328.897h-401.991c-4.952 0-9.235 1.813-12.851 5.428-3.616 3.613-5.423 7.899-5.423 12.847v36.548c0 4.949 1.807 9.23 5.424 12.848 3.619 3.613 7.902 5.424 12.851 5.424h401.991c4.948 0 9.229-1.811 12.847-5.424 3.614-3.617 5.421-7.898 5.421-12.848v-36.548c0-4.948-1.8-9.233-5.421-12.847-3.618-3.614-7.896-5.428-12.848-5.428zM433.112 41.968c-3.617-3.617-7.898-5.426-12.847-5.426h-401.991c-4.952 0-9.235 1.809-12.851 5.426-3.616 3.615-5.423 7.898-5.423 12.845v36.547c0 4.949 1.807 9.229 5.424 12.847 3.619 3.618 7.902 5.424 12.851 5.424h401.991c4.948 0 9.229-1.807 12.847-5.424 3.614-3.617 5.421-7.898 5.421-12.847v-36.547c-.001-4.947-1.805-9.23-5.422-12.845zM420.265 182.72h-401.991c-4.952 0-9.235 1.809-12.851 5.426-3.616 3.615-5.423 7.898-5.423 12.846v36.547c0 4.948 1.807 9.236 5.424 12.847 3.619 3.614 7.902 5.428 12.851 5.428h401.991c4.948 0 9.229-1.813 12.847-5.428 3.614-3.61 5.421-7.898 5.421-12.847v-36.547c0-4.948-1.807-9.231-5.421-12.847-3.618-3.617-7.896-5.425-12.848-5.425z"/></svg>